<svg width="70" height="70" viewBox="0 0 70 70" fill="none" xmlns="http://www.w3.org/2000/svg">
<path d="M64.4868 34.5626C64.4868 16.9702 51.4789 2.41247 34.5588 0V4.63139C16.9684 4.63139 2.41221 17.6408 0 34.5626H4.63088C4.63088 52.155 17.6388 66.7128 34.5588 69.1252V64.4938C52.1493 64.4938 66.7055 51.4845 69.1177 34.5626H64.4868Z" fill="#FC6200"/>
<path d="M45.3553 40.7977C43.1989 44.5236 39.1693 47.0328 34.5522 47.0328C27.6681 47.0328 22.0834 41.4475 22.0834 34.5626C22.0834 27.6777 27.6681 22.0924 34.5522 22.0924C39.1693 22.0924 43.1989 24.5948 45.3553 28.3275L52.1012 24.4289C48.7559 17.8205 42.245 13.0992 34.5592 12.249V14.6062C23.0096 14.6062 13.4921 23.3298 12.2549 34.5626H14.6118C14.6118 46.1134 23.3414 55.632 34.5661 56.8693V54.5121C42.1068 54.5121 48.7697 50.8001 52.8408 45.1042L45.3692 40.7908L45.3553 40.7977Z" fill="white"/>
</svg>
